<svg width="250" height="170" viewBox="0 0 250 170" fill="none" xmlns="http://www.w3.org/2000/svg">
<path fill-rule="evenodd" clip-rule="evenodd" d="M55.6673 79H54.334V84.3333L49 84.3333V85.6667H54.334V91H55.6673V85.6667H61V84.3333L55.6673 84.3333V79Z" fill="#0E1C36"/>
<path d="M69.32 92.16V88.496H70.072C70.264 88.304 70.4293 87.9893 70.568 87.552C70.7067 87.104 70.824 86.528 70.92 85.824C71.016 85.1093 71.0853 84.272 71.128 83.312C71.1707 82.3413 71.192 81.232 71.192 79.984V78.8H78.152V88.496H79.4V92.16H77.784V90H70.936V92.16H69.32ZM72.824 80.288V80.528C72.8133 81.5413 72.7867 82.464 72.744 83.296C72.7013 84.1173 72.632 84.8587 72.536 85.52C72.4507 86.1707 72.3387 86.7467 72.2 87.248C72.072 87.7387 71.9227 88.1547 71.752 88.496H76.488V80.288H72.824ZM84.2803 90.128C83.6936 90.128 83.1549 90.0267 82.6643 89.824C82.1843 89.6213 81.7683 89.344 81.4163 88.992C81.0643 88.6293 80.7923 88.1973 80.6003 87.696C80.4083 87.1947 80.3123 86.6507 80.3123 86.064V85.616C80.3123 85.0187 80.4083 84.4747 80.6003 83.984C80.7923 83.4827 81.0643 83.056 81.4163 82.704C81.7683 82.3413 82.1843 82.0587 82.6643 81.856C83.1549 81.6533 83.6936 81.552 84.2803 81.552H84.4403C85.0269 81.552 85.5603 81.6533 86.0403 81.856C86.5309 82.0587 86.9523 82.3413 87.3043 82.704C87.6563 83.056 87.9283 83.4827 88.1203 83.984C88.3123 84.4747 88.4083 85.0187 88.4083 85.616V86.064C88.4083 86.6507 88.3123 87.1947 88.1203 87.696C87.9283 88.1973 87.6563 88.6293 87.3043 88.992C86.9523 89.344 86.5309 89.6213 86.0403 89.824C85.5603 90.0267 85.0269 90.128 84.4403 90.128H84.2803ZM84.2963 88.736H84.4243C84.7763 88.736 85.0963 88.672 85.3843 88.544C85.6723 88.416 85.9176 88.2347 86.1203 88C86.3229 87.7547 86.4776 87.4667 86.5843 87.136C86.6909 86.7947 86.7443 86.4267 86.7443 86.032V85.632C86.7443 85.2267 86.6856 84.8587 86.5683 84.528C86.4616 84.1973 86.3069 83.9147 86.1043 83.68C85.9016 83.4453 85.6563 83.264 85.3683 83.136C85.0803 83.008 84.7656 82.944 84.4243 82.944H84.2963C83.9443 82.944 83.6243 83.008 83.3363 83.136C83.0589 83.264 82.8189 83.4453 82.6163 83.68C82.4136 83.9147 82.2536 84.1973 82.1363 84.528C82.0189 84.8587 81.9603 85.2267 81.9603 85.632V86.032C81.9603 86.4267 82.0136 86.7947 82.1203 87.136C82.2376 87.4667 82.3976 87.7547 82.6003 88C82.8029 88.2347 83.0483 88.416 83.3363 88.544C83.6243 88.672 83.9443 88.736 84.2963 88.736ZM89.1615 92.048V88.656H89.8335C90.1535 88.4 90.3882 87.7067 90.5375 86.576C90.6975 85.4347 90.7775 83.8027 90.7775 81.68H96.6655V88.656H97.7695V92.048H96.2495V90H90.6655V92.048H89.1615ZM91.4495 88.656H95.0815V83.008H92.2815C92.2602 84.7147 92.1748 86.0267 92.0255 86.944C91.8762 87.8613 91.6842 88.432 91.4495 88.656ZM101.612 90.144C101.206 90.144 100.833 90.0853 100.492 89.968C100.161 89.8507 99.8728 89.6853 99.6275 89.472C99.3928 89.2587 99.2062 89.0027 99.0675 88.704C98.9395 88.3947 98.8755 88.0533 98.8755 87.68V87.552C98.8755 86.6453 99.2595 85.9733 100.028 85.536C100.806 85.088 101.996 84.864 103.596 84.864H104.316V84.4C104.316 83.952 104.166 83.6 103.868 83.344C103.58 83.0773 103.158 82.944 102.604 82.944H102.508C102.081 82.944 101.644 83.0187 101.196 83.168C100.758 83.3173 100.353 83.5307 99.9795 83.808L99.2755 82.608C99.7875 82.2773 100.321 82.016 100.876 81.824C101.441 81.6213 102.022 81.52 102.62 81.52H102.732C103.222 81.52 103.66 81.584 104.044 81.712C104.428 81.84 104.753 82.032 105.02 82.288C105.297 82.5333 105.505 82.832 105.644 83.184C105.782 83.536 105.852 83.9307 105.852 84.368V88.464C105.852 88.72 105.878 88.9867 105.932 89.264C105.996 89.5307 106.065 89.776 106.14 90H104.588C104.534 89.8827 104.486 89.7333 104.444 89.552C104.412 89.3707 104.385 89.1893 104.364 89.008C103.98 89.3707 103.553 89.6533 103.084 89.856C102.625 90.048 102.134 90.144 101.612 90.144ZM101.868 88.752C102.358 88.752 102.812 88.6507 103.228 88.448C103.654 88.2347 104.017 87.952 104.316 87.6V86.064H103.804C102.62 86.064 101.761 86.176 101.228 86.4C100.694 86.624 100.428 86.9867 100.428 87.488V87.568C100.428 87.7493 100.46 87.9147 100.524 88.064C100.598 88.2027 100.694 88.3253 100.812 88.432C100.94 88.528 101.094 88.608 101.276 88.672C101.457 88.7253 101.654 88.752 101.868 88.752ZM109.8 90V83.056H107.304V81.68H113.864V83.056H111.384V90H109.8ZM115.404 90V81.68H116.956V87.44H117.116L120.956 81.68H122.652V90H121.084V83.968H120.94L116.924 90H115.404ZM128.505 92.048V88.656H129.177C129.497 88.4 129.732 87.7067 129.881 86.576C130.041 85.4347 130.121 83.8027 130.121 81.68H136.009V88.656H137.113V92.048H135.593V90H130.009V92.048H128.505ZM130.793 88.656H134.425V83.008H131.625C131.604 84.7147 131.519 86.0267 131.369 86.944C131.22 87.8613 131.028 88.432 130.793 88.656ZM141.874 90.128C141.287 90.128 140.749 90.0267 140.258 89.824C139.778 89.6213 139.362 89.344 139.01 88.992C138.658 88.6293 138.386 88.1973 138.194 87.696C138.002 87.1947 137.906 86.6507 137.906 86.064V85.616C137.906 85.0187 138.002 84.4747 138.194 83.984C138.386 83.4827 138.658 83.056 139.01 82.704C139.362 82.3413 139.778 82.0587 140.258 81.856C140.749 81.6533 141.287 81.552 141.874 81.552H142.034C142.621 81.552 143.154 81.6533 143.634 81.856C144.125 82.0587 144.546 82.3413 144.898 82.704C145.25 83.056 145.522 83.4827 145.714 83.984C145.906 84.4747 146.002 85.0187 146.002 85.616V86.064C146.002 86.6507 145.906 87.1947 145.714 87.696C145.522 88.1973 145.25 88.6293 144.898 88.992C144.546 89.344 144.125 89.6213 143.634 89.824C143.154 90.0267 142.621 90.128 142.034 90.128H141.874ZM141.89 88.736H142.018C142.37 88.736 142.69 88.672 142.978 88.544C143.266 88.416 143.511 88.2347 143.714 88C143.917 87.7547 144.071 87.4667 144.178 87.136C144.285 86.7947 144.338 86.4267 144.338 86.032V85.632C144.338 85.2267 144.279 84.8587 144.162 84.528C144.055 84.1973 143.901 83.9147 143.698 83.68C143.495 83.4453 143.25 83.264 142.962 83.136C142.674 83.008 142.359 82.944 142.018 82.944H141.89C141.538 82.944 141.218 83.008 140.93 83.136C140.653 83.264 140.413 83.4453 140.21 83.68C140.007 83.9147 139.847 84.1973 139.73 84.528C139.613 84.8587 139.554 85.2267 139.554 85.632V86.032C139.554 86.4267 139.607 86.7947 139.714 87.136C139.831 87.4667 139.991 87.7547 140.194 88C140.397 88.2347 140.642 88.416 140.93 88.544C141.218 88.672 141.538 88.736 141.89 88.736ZM147.904 90V81.68H149.488V85.248H149.568L152.944 81.68H154.816L151.072 85.552L154.976 90H152.976L149.584 85.968H149.488V90H147.904ZM157.302 93.184C157.11 93.184 156.886 93.1627 156.63 93.12C156.374 93.0773 156.145 92.9973 155.942 92.88V91.488C156.123 91.584 156.305 91.6533 156.486 91.696C156.667 91.7387 156.849 91.76 157.03 91.76C157.403 91.76 157.739 91.6373 158.038 91.392C158.347 91.1467 158.598 90.8 158.79 90.352L155.206 81.68H156.934L159.558 88.352H159.67L161.734 81.68H163.366L160.47 90.4C160.331 90.816 160.166 91.1893 159.974 91.52C159.782 91.8613 159.553 92.1547 159.286 92.4C159.03 92.6453 158.737 92.8373 158.406 92.976C158.086 93.1147 157.718 93.184 157.302 93.184ZM164.686 90V81.68H166.366L168.91 86.88H169.054L171.598 81.68H173.278V90H171.742V84.48H171.582L169.55 88.592H168.414L166.366 84.496H166.222V90H164.686ZM179.171 90.128C178.574 90.128 178.03 90.032 177.539 89.84C177.049 89.6373 176.627 89.36 176.275 89.008C175.934 88.6453 175.667 88.2187 175.475 87.728C175.283 87.2267 175.187 86.672 175.187 86.064V85.76C175.187 85.1413 175.283 84.576 175.475 84.064C175.667 83.5413 175.934 83.0987 176.275 82.736C176.627 82.3627 177.043 82.0747 177.523 81.872C178.014 81.6693 178.558 81.568 179.155 81.568H179.299C179.843 81.568 180.339 81.664 180.787 81.856C181.246 82.0373 181.63 82.2987 181.939 82.64C182.259 82.9707 182.505 83.376 182.675 83.856C182.857 84.3253 182.947 84.848 182.947 85.424V86.416H176.803C176.835 86.7573 176.915 87.072 177.043 87.36C177.171 87.6373 177.337 87.8773 177.539 88.08C177.753 88.272 178.003 88.4267 178.291 88.544C178.59 88.6507 178.915 88.704 179.267 88.704H179.427C179.961 88.704 180.414 88.592 180.787 88.368C181.161 88.144 181.465 87.8667 181.699 87.536L182.723 88.448C182.531 88.704 182.313 88.9387 182.067 89.152C181.822 89.3653 181.555 89.5413 181.267 89.68C180.979 89.8187 180.675 89.9253 180.355 90C180.035 90.0853 179.699 90.128 179.347 90.128H179.171ZM176.835 85.184H181.427V85.168C181.406 84.8267 181.342 84.5173 181.235 84.24C181.129 83.9627 180.979 83.728 180.787 83.536C180.595 83.344 180.371 83.1947 180.115 83.088C179.859 82.9813 179.577 82.928 179.267 82.928H179.107C178.798 82.928 178.51 82.9813 178.243 83.088C177.987 83.1947 177.763 83.344 177.571 83.536C177.379 83.728 177.219 83.9627 177.091 84.24C176.963 84.5173 176.878 84.832 176.835 85.184ZM184.826 90V81.68H186.41V84.976H190.33V81.68H191.914V90H190.33V86.336H186.41V90H184.826ZM195.925 90V83.056H193.429V81.68H199.989V83.056H197.509V90H195.925Z" fill="#0E1C36"/>
<rect x="0.5" y="0.5" width="249" height="169" rx="15.5" stroke="black" stroke-dasharray="28 28"/>
</svg>
