<svg width="40" height="40" viewBox="0 0 40 40" fill="none" xmlns="http://www.w3.org/2000/svg">
<g id="account / 24 / Outline">
<path id="Vector" d="M24.6833 20.4666C25.7383 19.3337 26.3326 17.8479 26.35 16.3C26.35 14.6291 25.6862 13.0267 24.5048 11.8452C23.3233 10.6637 21.7208 9.99998 20.05 9.99998C18.3791 9.99998 16.7767 10.6637 15.5952 11.8452C14.4137 13.0267 13.75 14.6291 13.75 16.3C13.7674 17.8479 14.3617 19.3337 15.4166 20.4666C13.9477 21.1981 12.6837 22.2832 11.7382 23.6244C10.7927 24.9655 10.1954 26.5207 9.99998 28.15C9.95136 28.592 10.0803 29.0352 10.3585 29.3822C10.6367 29.7291 11.0413 29.9514 11.4833 30C11.9253 30.0486 12.3686 29.9196 12.7155 29.6415C13.0625 29.3633 13.2847 28.9587 13.3333 28.5166C13.5322 26.9019 14.3147 25.4156 15.5335 24.3377C16.7522 23.2599 18.323 22.6649 19.95 22.6649C21.577 22.6649 23.1478 23.2599 24.3665 24.3377C25.5852 25.4156 26.3678 26.9019 26.5666 28.5166C26.613 28.944 26.8227 29.3369 27.1519 29.6133C27.4811 29.8898 27.9044 30.0283 28.3333 30H28.5166C28.9535 29.9497 29.3529 29.7288 29.6276 29.3854C29.9023 29.042 30.0302 28.6039 29.9833 28.1666C29.8024 26.5459 29.224 24.995 28.2993 23.6517C27.3747 22.3084 26.1326 21.2143 24.6833 20.4666ZM20 19.2666C19.4132 19.2666 18.8397 19.0927 18.3518 18.7667C17.8639 18.4407 17.4837 17.9774 17.2591 17.4353C17.0346 16.8932 16.9758 16.2967 17.0903 15.7212C17.2048 15.1457 17.4873 14.6171 17.9022 14.2022C18.3171 13.7873 18.8457 13.5048 19.4212 13.3903C19.9967 13.2758 20.5932 13.3346 21.1353 13.5591C21.6774 13.7837 22.1407 14.1639 22.4667 14.6518C22.7927 15.1397 22.9666 15.7132 22.9666 16.3C22.9666 17.0868 22.6541 17.8414 22.0977 18.3977C21.5414 18.9541 20.7868 19.2666 20 19.2666ZM31.6666 3.33331H8.33331C7.00723 3.33331 5.73546 3.8601 4.79778 4.79778C3.8601 5.73546 3.33331 7.00723 3.33331 8.33331V31.6666C3.33331 32.9927 3.8601 34.2645 4.79778 35.2022C5.73546 36.1399 7.00723 36.6666 8.33331 36.6666H31.6666C32.9927 36.6666 34.2645 36.1399 35.2022 35.2022C36.1399 34.2645 36.6666 32.9927 36.6666 31.6666V8.33331C36.6666 7.00723 36.1399 5.73546 35.2022 4.79778C34.2645 3.8601 32.9927 3.33331 31.6666 3.33331ZM33.3333 31.6666C33.3333 32.1087 33.1577 32.5326 32.8452 32.8452C32.5326 33.1577 32.1087 33.3333 31.6666 33.3333H8.33331C7.89129 33.3333 7.46736 33.1577 7.1548 32.8452C6.84224 32.5326 6.66665 32.1087 6.66665 31.6666V8.33331C6.66665 7.89129 6.84224 7.46736 7.1548 7.1548C7.46736 6.84224 7.89129 6.66665 8.33331 6.66665H31.6666C32.1087 6.66665 32.5326 6.84224 32.8452 7.1548C33.1577 7.46736 33.3333 7.89129 33.3333 8.33331V31.6666Z" fill="#0E1C36"/>
</g>
</svg>
