<svg viewBox="0 0 12 12" xmlns="http://www.w3.org/2000/svg">
<path d="M9.5 1H2.5C2.10218 1 1.72064 1.15804 1.43934 1.43934C1.15804 1.72064 1 2.10218 1 2.5V9.5C1 9.89782 1.15804 10.2794 1.43934 10.5607C1.72064 10.842 2.10218 11 2.5 11H9.5C9.89782 11 10.2794 10.842 10.5607 10.5607C10.842 10.2794 11 9.89782 11 9.5V2.5C11 2.10218 10.842 1.72064 10.5607 1.43934C10.2794 1.15804 9.89782 1 9.5 1ZM7 2V3.645L6.245 3.225C6.16899 3.18112 6.08277 3.15801 5.995 3.15801C5.90723 3.15801 5.82101 3.18112 5.745 3.225L5 3.645V2H7ZM10 9.5C10 9.63261 9.94732 9.75979 9.85355 9.85355C9.75979 9.94732 9.63261 10 9.5 10H2.5C2.36739 10 2.24021 9.94732 2.14645 9.85355C2.05268 9.75979 2 9.63261 2 9.5V2.5C2 2.36739 2.05268 2.24021 2.14645 2.14645C2.24021 2.05268 2.36739 2 2.5 2H4V4.5C4.00053 4.58726 4.02388 4.67286 4.06774 4.74829C4.11159 4.82373 4.17443 4.88637 4.25 4.93C4.32601 4.97388 4.41223 4.99699 4.5 4.99699C4.58777 4.99699 4.67399 4.97388 4.75 4.93L6 4.235L7.255 4.935C7.32973 4.97735 7.41411 4.99974 7.5 5C7.63261 5 7.75979 4.94732 7.85355 4.85355C7.94732 4.75979 8 4.63261 8 4.5V2H9.5C9.63261 2 9.75979 2.05268 9.85355 2.14645C9.94732 2.24021 10 2.36739 10 2.5V9.5Z"/>
</svg>
