<svg width="248" height="37" viewBox="0 0 248 37" fill="none" xmlns="http://www.w3.org/2000/svg">
<path d="M0 0H248V29C248 33.4183 244.418 37 240 37H8.00001C3.58173 37 0 33.4183 0 29V0Z" fill="url(#paint0_linear_54_1122)" fill-opacity="0.5"/>
<path d="M121.744 7.75L121.451 8.01367L120.777 8.6875H114.625V10.5625H115.562V27.4375C115.562 28.9792 116.833 30.25 118.375 30.25H129.625C131.167 30.25 132.438 28.9792 132.438 27.4375V10.5625H133.375V8.6875H127.223L126.549 8.01367L126.256 7.75H121.744ZM122.535 9.625H125.465L126.139 10.2988L126.432 10.5625H130.562V27.4375C130.562 27.9575 130.145 28.375 129.625 28.375H118.375C117.855 28.375 117.438 27.9575 117.438 27.4375V10.5625H121.568L121.861 10.2988L122.535 9.625ZM119.312 14.3125V24.625H121.188V14.3125H119.312ZM123.062 14.3125V24.625H124.938V14.3125H123.062ZM126.812 14.3125V24.625H128.688V14.3125H126.812Z" fill="white"/>
<defs>
<linearGradient id="paint0_linear_54_1122" x1="127.835" y1="37.0001" x2="127.835" y2="-202.83" gradientUnits="userSpaceOnUse">
<stop stop-color="#0E1C36"/>
<stop offset="0.364583" stop-color="#0E1C36"/>
</linearGradient>
</defs>
</svg>
