<svg width="128" height="24" viewBox="0 0 128 24" fill="none" xmlns="http://www.w3.org/2000/svg">
<path d="M0 0H128V20C128 22.2091 126.209 24 124 24H4C1.79086 24 0 22.2091 0 20V0Z" fill="#0E1C36" fill-opacity="0.5"/>
<path d="M62.6465 4.25L62.4707 4.4082L62.0664 4.8125H58.375V5.9375H58.9375V16.0625C58.9375 16.9875 59.7 17.75 60.625 17.75H67.375C68.3 17.75 69.0625 16.9875 69.0625 16.0625V5.9375H69.625V4.8125H65.9336L65.5293 4.4082L65.3535 4.25H62.6465ZM63.1211 5.375H64.8789L65.2832 5.7793L65.459 5.9375H67.9375V16.0625C67.9375 16.3745 67.687 16.625 67.375 16.625H60.625C60.313 16.625 60.0625 16.3745 60.0625 16.0625V5.9375H62.541L62.7168 5.7793L63.1211 5.375ZM61.1875 8.1875V14.375H62.3125V8.1875H61.1875ZM63.4375 8.1875V14.375H64.5625V8.1875H63.4375ZM65.6875 8.1875V14.375H66.8125V8.1875H65.6875Z" fill="white"/>
</svg>
