<svg width="16" height="12" viewBox="0 0 16 12" fill="none" xmlns="http://www.w3.org/2000/svg">
<path d="M15.3334 4.62667C15.3265 4.56542 15.3131 4.50509 15.2934 4.44667V4.38667C15.2614 4.31812 15.2186 4.25511 15.1667 4.2L11.1667 0.2C11.1116 0.148144 11.0486 0.105387 10.9801 0.0733333H10.9201C10.8524 0.0344942 10.7776 0.0095628 10.7001 0H5.33342C4.80298 0 4.29427 0.210714 3.9192 0.585787C3.54413 0.960859 3.33341 1.46957 3.33341 2V2.66667H2.66675C2.13632 2.66667 1.62761 2.87738 1.25253 3.25245C0.877462 3.62753 0.666748 4.13623 0.666748 4.66667V10C0.666748 10.5304 0.877462 11.0391 1.25253 11.4142C1.62761 11.7893 2.13632 12 2.66675 12H10.6667C11.1972 12 11.7059 11.7893 12.081 11.4142C12.456 11.0391 12.6667 10.5304 12.6667 10V9.33333H13.3334C13.8638 9.33333 14.3726 9.12262 14.7476 8.74755C15.1227 8.37247 15.3334 7.86377 15.3334 7.33333V4.66667C15.3334 4.66667 15.3334 4.66667 15.3334 4.62667ZM11.3334 2.27333L13.0601 4H12.0001C11.8233 4 11.6537 3.92976 11.5287 3.80474C11.4037 3.67971 11.3334 3.51014 11.3334 3.33333V2.27333ZM11.3334 10C11.3334 10.1768 11.2632 10.3464 11.1382 10.4714C11.0131 10.5964 10.8436 10.6667 10.6667 10.6667H2.66675C2.48994 10.6667 2.32037 10.5964 2.19534 10.4714C2.07032 10.3464 2.00008 10.1768 2.00008 10V4.66667C2.00008 4.48986 2.07032 4.32029 2.19534 4.19526C2.32037 4.07024 2.48994 4 2.66675 4H3.33341V7.33333C3.33341 7.86377 3.54413 8.37247 3.9192 8.74755C4.29427 9.12262 4.80298 9.33333 5.33342 9.33333H11.3334V10ZM14.0001 7.33333C14.0001 7.51014 13.9298 7.67971 13.8048 7.80474C13.6798 7.92976 13.5102 8 13.3334 8H5.33342C5.1566 8 4.98703 7.92976 4.86201 7.80474C4.73699 7.67971 4.66675 7.51014 4.66675 7.33333V2C4.66675 1.82319 4.73699 1.65362 4.86201 1.5286C4.98703 1.40357 5.1566 1.33333 5.33342 1.33333H10.0001V3.33333C10.0001 3.86377 10.2108 4.37247 10.5859 4.74755C10.9609 5.12262 11.4696 5.33333 12.0001 5.33333H14.0001V7.33333Z"/>
</svg>
