<svg width="14" height="14" viewBox="0 0 14 14" fill="none" xmlns="http://www.w3.org/2000/svg">
<path d="M12.3333 4.45337V1.00004C12.3333 0.82323 12.2631 0.65366 12.1381 0.528636C12.013 0.403612 11.8435 0.333374 11.6667 0.333374C11.4899 0.333374 11.3203 0.403612 11.1953 0.528636C11.0702 0.65366 11 0.82323 11 1.00004V4.45337C10.6139 4.59351 10.2803 4.84913 10.0446 5.18548C9.80881 5.52184 9.68235 5.92263 9.68235 6.33337C9.68235 6.74412 9.80881 7.14491 10.0446 7.48126C10.2803 7.81762 10.6139 8.07324 11 8.21337V13C11 13.1769 11.0702 13.3464 11.1953 13.4714C11.3203 13.5965 11.4899 13.6667 11.6667 13.6667C11.8435 13.6667 12.013 13.5965 12.1381 13.4714C12.2631 13.3464 12.3333 13.1769 12.3333 13V8.21337C12.7194 8.07324 13.053 7.81762 13.2888 7.48126C13.5245 7.14491 13.651 6.74412 13.651 6.33337C13.651 5.92263 13.5245 5.52184 13.2888 5.18548C13.053 4.84913 12.7194 4.59351 12.3333 4.45337ZM11.6667 7.00004C11.5348 7.00004 11.4059 6.96094 11.2963 6.88769C11.1867 6.81443 11.1012 6.71031 11.0507 6.5885C11.0003 6.46668 10.9871 6.33263 11.0128 6.20331C11.0385 6.07399 11.102 5.9552 11.1953 5.86197C11.2885 5.76873 11.4073 5.70524 11.5366 5.67952C11.6659 5.65379 11.8 5.667 11.9218 5.71745C12.0436 5.76791 12.1477 5.85336 12.221 5.96299C12.2942 6.07263 12.3333 6.20152 12.3333 6.33337C12.3333 6.51018 12.2631 6.67975 12.1381 6.80478C12.013 6.9298 11.8435 7.00004 11.6667 7.00004ZM7.66667 8.45337V1.00004C7.66667 0.82323 7.59643 0.65366 7.4714 0.528636C7.34638 0.403612 7.17681 0.333374 7 0.333374C6.82319 0.333374 6.65362 0.403612 6.52859 0.528636C6.40357 0.65366 6.33333 0.82323 6.33333 1.00004V8.45337C5.94723 8.59351 5.61364 8.84913 5.37789 9.18548C5.14215 9.52184 5.01568 9.92263 5.01568 10.3334C5.01568 10.7441 5.14215 11.1449 5.37789 11.4813C5.61364 11.8176 5.94723 12.0732 6.33333 12.2134V13C6.33333 13.1769 6.40357 13.3464 6.52859 13.4714C6.65362 13.5965 6.82319 13.6667 7 13.6667C7.17681 13.6667 7.34638 13.5965 7.4714 13.4714C7.59643 13.3464 7.66667 13.1769 7.66667 13V12.2134C8.05277 12.0732 8.38636 11.8176 8.6221 11.4813C8.85785 11.1449 8.98432 10.7441 8.98432 10.3334C8.98432 9.92263 8.85785 9.52184 8.6221 9.18548C8.38636 8.84913 8.05277 8.59351 7.66667 8.45337ZM7 11C6.86814 11 6.73925 10.9609 6.62962 10.8877C6.51999 10.8144 6.43454 10.7103 6.38408 10.5885C6.33362 10.4667 6.32042 10.3326 6.34614 10.2033C6.37187 10.074 6.43536 9.9552 6.52859 9.86197C6.62183 9.76873 6.74062 9.70524 6.86994 9.67952C6.99926 9.65379 7.1333 9.667 7.25512 9.71745C7.37694 9.76791 7.48106 9.85336 7.55431 9.96299C7.62757 10.0726 7.66667 10.2015 7.66667 10.3334C7.66667 10.5102 7.59643 10.6798 7.4714 10.8048C7.34638 10.9298 7.17681 11 7 11ZM3 3.12004V1.00004C3 0.82323 2.92976 0.65366 2.80474 0.528636C2.67971 0.403612 2.51014 0.333374 2.33333 0.333374C2.15652 0.333374 1.98695 0.403612 1.86193 0.528636C1.7369 0.65366 1.66667 0.82323 1.66667 1.00004V3.12004C1.28056 3.26018 0.946972 3.51579 0.711226 3.85215C0.475481 4.18851 0.349014 4.58929 0.349014 5.00004C0.349014 5.41079 0.475481 5.81157 0.711226 6.14793C0.946972 6.48429 1.28056 6.7399 1.66667 6.88004V13C1.66667 13.1769 1.7369 13.3464 1.86193 13.4714C1.98695 13.5965 2.15652 13.6667 2.33333 13.6667C2.51014 13.6667 2.67971 13.5965 2.80474 13.4714C2.92976 13.3464 3 13.1769 3 13V6.88004C3.3861 6.7399 3.71969 6.48429 3.95544 6.14793C4.19118 5.81157 4.31765 5.41079 4.31765 5.00004C4.31765 4.58929 4.19118 4.18851 3.95544 3.85215C3.71969 3.51579 3.3861 3.26018 3 3.12004ZM2.33333 5.66671C2.20148 5.66671 2.07258 5.62761 1.96295 5.55435C1.85332 5.4811 1.76787 5.37698 1.71741 5.25516C1.66695 5.13335 1.65375 4.9993 1.67948 4.86998C1.7052 4.74066 1.76869 4.62187 1.86193 4.52864C1.95516 4.4354 2.07395 4.37191 2.20327 4.34618C2.33259 4.32046 2.46664 4.33366 2.58845 4.38412C2.71027 4.43458 2.81439 4.52003 2.88765 4.62966C2.9609 4.73929 3 4.86819 3 5.00004C3 5.17685 2.92976 5.34642 2.80474 5.47144C2.67971 5.59647 2.51014 5.66671 2.33333 5.66671Z" fill="#011627"/>
</svg>
