<svg width="16" height="16" viewBox="0 0 16 16" fill="none" xmlns="http://www.w3.org/2000/svg">
<path d="M14.6666 10.6666H13.2133C13.2909 10.4529 13.3315 10.2274 13.3333 9.99998V6.66665C13.3333 6.13621 13.1226 5.62751 12.7475 5.25243C12.3724 4.87736 11.8637 4.66665 11.3333 4.66665H7.33329C6.80286 4.66665 6.29415 4.87736 5.91908 5.25243C5.54401 5.62751 5.33329 6.13621 5.33329 6.66665V9.99998C5.3351 10.2274 5.37568 10.4529 5.45329 10.6666H4.66663C4.48981 10.6666 4.32025 10.5964 4.19522 10.4714C4.0702 10.3464 3.99996 10.1768 3.99996 9.99998V3.33331C3.99996 2.80288 3.78925 2.29417 3.41417 1.9191C3.0391 1.54403 2.53039 1.33331 1.99996 1.33331H1.33329C1.15648 1.33331 0.986912 1.40355 0.861888 1.52858C0.736864 1.6536 0.666626 1.82317 0.666626 1.99998C0.666626 2.17679 0.736864 2.34636 0.861888 2.47138C0.986912 2.59641 1.15648 2.66665 1.33329 2.66665H1.99996C2.17677 2.66665 2.34634 2.73688 2.47136 2.86191C2.59639 2.98693 2.66663 3.1565 2.66663 3.33331V9.99998C2.66908 10.4379 2.81521 10.8629 3.08257 11.2098C3.34994 11.5566 3.72375 11.8061 4.14663 11.92C4.02385 12.2203 3.976 12.5461 4.0072 12.8691C4.03841 13.192 4.14773 13.5026 4.32574 13.7739C4.50375 14.0452 4.7451 14.2691 5.02896 14.4263C5.31282 14.5835 5.63067 14.6693 5.95509 14.6763C6.2795 14.6832 6.60073 14.6111 6.89107 14.4662C7.18141 14.3213 7.43213 14.1079 7.62159 13.8445C7.81106 13.5811 7.93359 13.2755 7.9786 12.9542C8.02361 12.6328 7.98976 12.3053 7.87996 12H10.12C10.0103 12.3021 9.97508 12.6261 10.0172 12.9447C10.0594 13.2633 10.1777 13.567 10.3622 13.8302C10.5466 14.0934 10.7918 14.3082 11.0769 14.4566C11.362 14.6049 11.6786 14.6823 12 14.6823C12.3213 14.6823 12.638 14.6049 12.9231 14.4566C13.2081 14.3082 13.4533 14.0934 13.6377 13.8302C13.8222 13.567 13.9405 13.2633 13.9827 12.9447C14.0248 12.6261 13.9896 12.3021 13.88 12H14.6666C14.8434 12 15.013 11.9297 15.138 11.8047C15.2631 11.6797 15.3333 11.5101 15.3333 11.3333C15.3333 11.1565 15.2631 10.9869 15.138 10.8619C15.013 10.7369 14.8434 10.6666 14.6666 10.6666ZM5.99996 13.3333C5.86811 13.3333 5.73921 13.2942 5.62958 13.221C5.51995 13.1477 5.4345 13.0436 5.38404 12.9218C5.33358 12.7999 5.32038 12.6659 5.3461 12.5366C5.37183 12.4073 5.43532 12.2885 5.52855 12.1952C5.62179 12.102 5.74058 12.0385 5.8699 12.0128C5.99922 11.9871 6.13326 12.0003 6.25508 12.0507C6.3769 12.1012 6.48102 12.1866 6.55427 12.2963C6.62753 12.4059 6.66663 12.5348 6.66663 12.6666C6.66663 12.8435 6.59639 13.013 6.47136 13.1381C6.34634 13.2631 6.17677 13.3333 5.99996 13.3333ZM7.33329 10.6666C7.15648 10.6666 6.98691 10.5964 6.86189 10.4714C6.73686 10.3464 6.66663 10.1768 6.66663 9.99998V6.66665C6.66663 6.48983 6.73686 6.32027 6.86189 6.19524C6.98691 6.07022 7.15648 5.99998 7.33329 5.99998H11.3333C11.5101 5.99998 11.6797 6.07022 11.8047 6.19524C11.9297 6.32027 12 6.48983 12 6.66665V9.99998C12 10.1768 11.9297 10.3464 11.8047 10.4714C11.6797 10.5964 11.5101 10.6666 11.3333 10.6666H7.33329ZM12 13.3333C11.8681 13.3333 11.7392 13.2942 11.6296 13.221C11.5199 13.1477 11.4345 13.0436 11.384 12.9218C11.3336 12.7999 11.3204 12.6659 11.3461 12.5366C11.3718 12.4073 11.4353 12.2885 11.5286 12.1952C11.6218 12.102 11.7406 12.0385 11.8699 12.0128C11.9992 11.9871 12.1333 12.0003 12.2551 12.0507C12.3769 12.1012 12.481 12.1866 12.5543 12.2963C12.6275 12.4059 12.6666 12.5348 12.6666 12.6666C12.6666 12.8435 12.5964 13.013 12.4714 13.1381C12.3463 13.2631 12.1768 13.3333 12 13.3333Z" fill="white"/>
</svg>
