<svg width="12" height="12" viewBox="0 0 12 12" fill="none" xmlns="http://www.w3.org/2000/svg">
<path d="M6.15 6.11C6.41679 5.87907 6.63078 5.59344 6.77744 5.27251C6.9241 4.95158 7 4.60285 7 4.25C7 3.58696 6.73661 2.95107 6.26777 2.48223C5.79893 2.01339 5.16304 1.75 4.5 1.75C3.83696 1.75 3.20107 2.01339 2.73223 2.48223C2.26339 2.95107 2 3.58696 2 4.25C2 4.60285 2.0759 4.95158 2.22256 5.27251C2.36922 5.59344 2.58321 5.87907 2.85 6.11C2.15007 6.42694 1.55623 6.93876 1.13949 7.58427C0.722748 8.22978 0.500736 8.98166 0.5 9.75C0.5 9.88261 0.552678 10.0098 0.646447 10.1036C0.740215 10.1973 0.867392 10.25 1 10.25C1.13261 10.25 1.25979 10.1973 1.35355 10.1036C1.44732 10.0098 1.5 9.88261 1.5 9.75C1.5 8.95435 1.81607 8.19129 2.37868 7.62868C2.94129 7.06607 3.70435 6.75 4.5 6.75C5.29565 6.75 6.05871 7.06607 6.62132 7.62868C7.18393 8.19129 7.5 8.95435 7.5 9.75C7.5 9.88261 7.55268 10.0098 7.64645 10.1036C7.74021 10.1973 7.86739 10.25 8 10.25C8.13261 10.25 8.25979 10.1973 8.35355 10.1036C8.44732 10.0098 8.5 9.88261 8.5 9.75C8.49926 8.98166 8.27725 8.22978 7.86051 7.58427C7.44377 6.93876 6.84993 6.42694 6.15 6.11ZM4.5 5.75C4.20333 5.75 3.91332 5.66203 3.66664 5.4972C3.41997 5.33238 3.22771 5.09811 3.11418 4.82403C3.00065 4.54994 2.97094 4.24834 3.02882 3.95736C3.0867 3.66639 3.22956 3.39912 3.43934 3.18934C3.64912 2.97956 3.91639 2.8367 4.20736 2.77882C4.49834 2.72094 4.79994 2.75065 5.07403 2.86418C5.34811 2.97771 5.58238 3.16997 5.7472 3.41664C5.91203 3.66332 6 3.95333 6 4.25C6 4.64782 5.84196 5.02936 5.56066 5.31066C5.27936 5.59196 4.89782 5.75 4.5 5.75ZM9.37 5.91C9.68998 5.54966 9.899 5.10453 9.9719 4.62817C10.0448 4.15181 9.97846 3.66454 9.78088 3.225C9.5833 2.78546 9.2629 2.4124 8.85824 2.15071C8.45357 1.88903 7.9819 1.74987 7.5 1.75C7.36739 1.75 7.24021 1.80268 7.14645 1.89645C7.05268 1.99021 7 2.11739 7 2.25C7 2.38261 7.05268 2.50979 7.14645 2.60355C7.24021 2.69732 7.36739 2.75 7.5 2.75C7.89782 2.75 8.27936 2.90804 8.56066 3.18934C8.84196 3.47064 9 3.85218 9 4.25C8.99929 4.51262 8.92965 4.77045 8.79803 4.99771C8.66641 5.22497 8.47744 5.41369 8.25 5.545C8.17587 5.58776 8.11395 5.64883 8.07018 5.72237C8.02641 5.79591 8.00224 5.87945 8 5.965C7.99791 6.04988 8.01747 6.1339 8.05683 6.20913C8.0962 6.28436 8.15407 6.34833 8.225 6.395L8.42 6.525L8.485 6.56C9.0877 6.84586 9.59616 7.298 9.95049 7.86316C10.3048 8.42832 10.4903 9.08297 10.485 9.75C10.485 9.88261 10.5377 10.0098 10.6314 10.1036C10.7252 10.1973 10.8524 10.25 10.985 10.25C11.1176 10.25 11.2448 10.1973 11.3386 10.1036C11.4323 10.0098 11.485 9.88261 11.485 9.75C11.4891 8.98271 11.2969 8.22713 10.9267 7.55503C10.5566 6.88294 10.0207 6.31666 9.37 5.91Z"/>
</svg>
