<svg width="35" height="34" viewBox="0 0 35 34" fill="none" xmlns="http://www.w3.org/2000/svg">
<path d="M22.1833 17.4666C23.2383 16.3337 23.8326 14.8479 23.85 13.2999C23.85 11.6291 23.1863 10.0266 22.0048 8.84515C20.8233 7.66367 19.2209 6.99992 17.55 6.99992C15.8791 6.99992 14.2767 7.66367 13.0952 8.84515C11.9138 10.0266 11.25 11.6291 11.25 13.2999C11.2674 14.8479 11.8617 16.3337 12.9167 17.4666C11.4478 18.198 10.1837 19.2831 9.2382 20.6243C8.29269 21.9655 7.69539 23.5206 7.50001 25.1499C7.45139 25.5919 7.58035 26.0352 7.85853 26.3821C8.13671 26.7291 8.54132 26.9513 8.98334 26.9999C9.42537 27.0485 9.86861 26.9196 10.2156 26.6414C10.5625 26.3632 10.7847 25.9586 10.8333 25.5166C11.0322 23.9018 11.8148 22.4155 13.0335 21.3377C14.2522 20.2598 15.823 19.6649 17.45 19.6649C19.077 19.6649 20.6478 20.2598 21.8665 21.3377C23.0853 22.4155 23.8678 23.9018 24.0667 25.5166C24.113 25.9439 24.3227 26.3369 24.6519 26.6133C24.9811 26.8897 25.4044 27.0282 25.8333 26.9999H26.0167C26.4536 26.9496 26.8529 26.7287 27.1276 26.3853C27.4023 26.0419 27.5302 25.6039 27.4833 25.1666C27.3024 23.5459 26.724 21.995 25.7994 20.6517C24.8748 19.3083 23.6326 18.2142 22.1833 17.4666ZM17.5 16.2666C16.9133 16.2666 16.3397 16.0926 15.8518 15.7666C15.364 15.4406 14.9837 14.9773 14.7592 14.4352C14.5346 13.8931 14.4759 13.2966 14.5903 12.7212C14.7048 12.1457 14.9874 11.6171 15.4023 11.2022C15.8172 10.7873 16.3458 10.5047 16.9212 10.3903C17.4967 10.2758 18.0932 10.3345 18.6353 10.5591C19.1774 10.7836 19.6407 11.1639 19.9667 11.6517C20.2927 12.1396 20.4667 12.7132 20.4667 13.2999C20.4667 14.0867 20.1541 14.8413 19.5978 15.3977C19.0414 15.954 18.2868 16.2666 17.5 16.2666ZM29.1667 0.333252H5.83334C4.50726 0.333252 3.23549 0.860036 2.29781 1.79772C1.36013 2.7354 0.833344 4.00717 0.833344 5.33325V28.6666C0.833344 29.9927 1.36013 31.2644 2.29781 32.2021C3.23549 33.1398 4.50726 33.6666 5.83334 33.6666H29.1667C30.4928 33.6666 31.7645 33.1398 32.7022 32.2021C33.6399 31.2644 34.1667 29.9927 34.1667 28.6666V5.33325C34.1667 4.00717 33.6399 2.7354 32.7022 1.79772C31.7645 0.860036 30.4928 0.333252 29.1667 0.333252ZM30.8333 28.6666C30.8333 29.1086 30.6577 29.5325 30.3452 29.8451C30.0326 30.1577 29.6087 30.3333 29.1667 30.3333H5.83334C5.39132 30.3333 4.96739 30.1577 4.65483 29.8451C4.34227 29.5325 4.16668 29.1086 4.16668 28.6666V5.33325C4.16668 4.89122 4.34227 4.4673 4.65483 4.15474C4.96739 3.84218 5.39132 3.66659 5.83334 3.66659H29.1667C29.6087 3.66659 30.0326 3.84218 30.3452 4.15474C30.6577 4.4673 30.8333 4.89122 30.8333 5.33325V28.6666Z" />
</svg>
