<svg width="12" height="10" viewBox="0 0 12 10" fill="none" xmlns="http://www.w3.org/2000/svg">
<path d="M10 0.75H2C1.60218 0.75 1.22064 0.908035 0.93934 1.18934C0.658035 1.47064 0.5 1.85218 0.5 2.25V8.75C0.5 8.88261 0.552678 9.00979 0.646447 9.10355C0.740215 9.19732 0.867392 9.25 1 9.25H3C3.08235 9.24957 3.16333 9.22881 3.23573 9.18956C3.30812 9.15031 3.36971 9.09378 3.415 9.025L4.27 7.75H7.73L8.585 9.025C8.63029 9.09378 8.69188 9.15031 8.76427 9.18956C8.83667 9.22881 8.91765 9.24957 9 9.25H11C11.1326 9.25 11.2598 9.19732 11.3536 9.10355C11.4473 9.00979 11.5 8.88261 11.5 8.75V2.25C11.5 1.85218 11.342 1.47064 11.0607 1.18934C10.7794 0.908035 10.3978 0.75 10 0.75ZM10.5 8.25H9.27L8.415 7C8.37268 6.92657 8.3124 6.86511 8.2398 6.82138C8.16721 6.77765 8.08469 6.75309 8 6.75H4C3.91765 6.75043 3.83667 6.77119 3.76427 6.81044C3.69188 6.84969 3.63029 6.90622 3.585 6.975L2.73 8.25H1.5V5.75H10.5V8.25ZM3.5 4.75V4.25C3.5 4.11739 3.55268 3.99021 3.64645 3.89645C3.74021 3.80268 3.86739 3.75 4 3.75H5C5.13261 3.75 5.25979 3.80268 5.35355 3.89645C5.44732 3.99021 5.5 4.11739 5.5 4.25V4.75H3.5ZM6.5 4.75V4.25C6.5 4.11739 6.55268 3.99021 6.64645 3.89645C6.74021 3.80268 6.86739 3.75 7 3.75H8C8.13261 3.75 8.25979 3.80268 8.35355 3.89645C8.44732 3.99021 8.5 4.11739 8.5 4.25V4.75H6.5ZM10.5 4.75H9.5V4.25C9.5 3.85218 9.34196 3.47064 9.06066 3.18934C8.77936 2.90804 8.39782 2.75 8 2.75H7C6.62997 2.75221 6.27382 2.89111 6 3.14C5.72618 2.89111 5.37003 2.75221 5 2.75H4C3.60218 2.75 3.22064 2.90804 2.93934 3.18934C2.65804 3.47064 2.5 3.85218 2.5 4.25V4.75H1.5V2.25C1.5 2.11739 1.55268 1.99021 1.64645 1.89645C1.74021 1.80268 1.86739 1.75 2 1.75H10C10.1326 1.75 10.2598 1.80268 10.3536 1.89645C10.4473 1.99021 10.5 2.11739 10.5 2.25V4.75Z"/>
</svg>
