<svg width="20" height="20" viewBox="0 0 20 20" fill="none" xmlns="http://www.w3.org/2000/svg">
<path d="M19.1193 7.87999L12.1193 0.879993C11.547 0.336985 10.7882 0.0342712 9.99931 0.0342712C9.21041 0.0342712 8.45159 0.336985 7.87931 0.879993L0.879313 7.87999C0.317512 8.44249 0.00195312 9.20499 0.00195312 9.99999C0.00195312 10.795 0.317512 11.5575 0.879313 12.12L7.87931 19.12C8.44181 19.6818 9.20431 19.9974 9.99931 19.9974C10.7943 19.9974 11.5568 19.6818 12.1193 19.12L19.1193 12.12C19.6811 11.5575 19.9967 10.795 19.9967 9.99999C19.9967 9.20499 19.6811 8.44249 19.1193 7.87999ZM17.7093 10.71L10.7093 17.71C10.6164 17.8037 10.5057 17.8781 10.3839 17.9289C10.262 17.9797 10.1313 18.0058 9.99931 18.0058C9.8673 18.0058 9.7366 17.9797 9.61474 17.9289C9.49288 17.8781 9.38228 17.8037 9.28931 17.71L2.28931 10.71C2.19558 10.617 2.12119 10.5064 2.07042 10.3846C2.01965 10.2627 1.99352 10.132 1.99352 9.99999C1.99352 9.86798 2.01965 9.73728 2.07042 9.61542C2.12119 9.49356 2.19558 9.38296 2.28931 9.28999L9.28931 2.28999C9.38228 2.19626 9.49288 2.12187 9.61474 2.0711C9.7366 2.02033 9.8673 1.99419 9.99931 1.99419C10.1313 1.99419 10.262 2.02033 10.3839 2.0711C10.5057 2.12187 10.6164 2.19626 10.7093 2.28999L17.7093 9.28999C17.803 9.38296 17.8774 9.49356 17.9282 9.61542C17.979 9.73728 18.0051 9.86798 18.0051 9.99999C18.0051 10.132 17.979 10.2627 17.9282 10.3846C17.8774 10.5064 17.803 10.617 17.7093 10.71ZM12.2093 7.28999C12.021 7.10169 11.7656 6.9959 11.4993 6.9959C11.233 6.9959 10.9776 7.10169 10.7893 7.28999C10.601 7.4783 10.4952 7.73369 10.4952 7.99999C10.4952 8.26629 10.601 8.52169 10.7893 8.70999L11.0893 8.99999H7.49931C7.2341 8.99999 6.97974 9.10535 6.79221 9.29289C6.60467 9.48042 6.49931 9.73478 6.49931 9.99999V12C6.49931 12.2652 6.60467 12.5196 6.79221 12.7071C6.97974 12.8946 7.2341 13 7.49931 13C7.76453 13 8.01888 12.8946 8.20642 12.7071C8.39396 12.5196 8.49931 12.2652 8.49931 12V11H11.0893L10.7893 11.29C10.6956 11.383 10.6212 11.4936 10.5704 11.6154C10.5197 11.7373 10.4935 11.868 10.4935 12C10.4935 12.132 10.5197 12.2627 10.5704 12.3846C10.6212 12.5064 10.6956 12.617 10.7893 12.71C10.8823 12.8037 10.9929 12.8781 11.1147 12.9289C11.2366 12.9797 11.3673 13.0058 11.4993 13.0058C11.6313 13.0058 11.762 12.9797 11.8839 12.9289C12.0057 12.8781 12.1164 12.8037 12.2093 12.71L14.2093 10.71C14.303 10.617 14.3774 10.5064 14.4282 10.3846C14.479 10.2627 14.5051 10.132 14.5051 9.99999C14.5051 9.86798 14.479 9.73728 14.4282 9.61542C14.3774 9.49356 14.303 9.38296 14.2093 9.28999L12.2093 7.28999Z" fill="#0E1C36"/>
</svg>
