<svg width="20" height="16" viewBox="0 0 20 16" fill="none" xmlns="http://www.w3.org/2000/svg">
<path d="M0 9.5V11.5C0 11.7652 0.105357 12.0196 0.292893 12.2071C0.48043 12.3946 0.734784 12.5 1 12.5H11C11 13.2956 11.3161 14.0587 11.8787 14.6213C12.4413 15.1839 13.2044 15.5 14 15.5C14.7956 15.5 15.5587 15.1839 16.1213 14.6213C16.6839 14.0587 17 13.2956 17 12.5H19C19.2652 12.5 19.5196 12.3946 19.7071 12.2071C19.8946 12.0196 20 11.7652 20 11.5V3.5C20 2.70435 19.6839 1.94129 19.1213 1.37868C18.5587 0.816071 17.7956 0.5 17 0.5H7C6.20435 0.5 5.44129 0.816071 4.87868 1.37868C4.31607 1.94129 4 2.70435 4 3.5V10.5H2V9.5C2 9.23478 1.89464 8.98043 1.70711 8.79289C1.51957 8.60536 1.26522 8.5 1 8.5C0.734784 8.5 0.48043 8.60536 0.292893 8.79289C0.105357 8.98043 0 9.23478 0 9.5ZM13 12.5C13 12.3022 13.0586 12.1089 13.1685 11.9444C13.2784 11.78 13.4346 11.6518 13.6173 11.5761C13.8 11.5004 14.0011 11.4806 14.1951 11.5192C14.3891 11.5578 14.5673 11.653 14.7071 11.7929C14.847 11.9327 14.9422 12.1109 14.9808 12.3049C15.0194 12.4989 14.9996 12.7 14.9239 12.8827C14.8482 13.0654 14.72 13.2216 14.5556 13.3315C14.3911 13.4414 14.1978 13.5 14 13.5C13.7348 13.5 13.4804 13.3946 13.2929 13.2071C13.1054 13.0196 13 12.7652 13 12.5ZM6 6.5H18V10.5H16.22C15.9388 10.1906 15.5961 9.94347 15.2138 9.77433C14.8315 9.60519 14.418 9.51782 14 9.51782C13.582 9.51782 13.1685 9.60519 12.7862 9.77433C12.4039 9.94347 12.0612 10.1906 11.78 10.5H6V6.5ZM6 3.5C6 3.23478 6.10536 2.98043 6.29289 2.79289C6.48043 2.60536 6.73478 2.5 7 2.5H17C17.2652 2.5 17.5196 2.60536 17.7071 2.79289C17.8946 2.98043 18 3.23478 18 3.5V4.5H6V3.5Z"/>
</svg>
