<svg width="22" height="20" viewBox="0 0 22 20" fill="none" xmlns="http://www.w3.org/2000/svg">
<path d="M0 10.5V15.5C0 15.7652 0.105357 16.0196 0.292893 16.2071C0.48043 16.3946 0.734784 16.5 1 16.5H2C2 17.2956 2.31607 18.0587 2.87868 18.6213C3.44129 19.1839 4.20435 19.5 5 19.5C5.79565 19.5 6.55871 19.1839 7.12132 18.6213C7.68393 18.0587 8 17.2956 8 16.5H14C14 17.2956 14.3161 18.0587 14.8787 18.6213C15.4413 19.1839 16.2044 19.5 17 19.5C17.7956 19.5 18.5587 19.1839 19.1213 18.6213C19.6839 18.0587 20 17.2956 20 16.5H21C21.2652 16.5 21.5196 16.3946 21.7071 16.2071C21.8946 16.0196 22 15.7652 22 15.5V3.5C22 2.70435 21.6839 1.94129 21.1213 1.37868C20.5587 0.816071 19.7956 0.5 19 0.5H10C9.20435 0.5 8.44129 0.816071 7.87868 1.37868C7.31607 1.94129 7 2.70435 7 3.5V5.5H5C4.53426 5.5 4.07493 5.60844 3.65836 5.81672C3.24179 6.025 2.87944 6.32741 2.6 6.7L0.2 9.9C0.170751 9.94347 0.147224 9.99052 0.13 10.04L0.0700001 10.15C0.0258661 10.2615 0.00215505 10.3801 0 10.5ZM16 16.5C16 16.3022 16.0586 16.1089 16.1685 15.9444C16.2784 15.78 16.4346 15.6518 16.6173 15.5761C16.8 15.5004 17.0011 15.4806 17.1951 15.5192C17.3891 15.5578 17.5673 15.653 17.7071 15.7929C17.847 15.9327 17.9422 16.1109 17.9808 16.3049C18.0194 16.4989 17.9996 16.7 17.9239 16.8827C17.8482 17.0654 17.72 17.2216 17.5556 17.3315C17.3911 17.4414 17.1978 17.5 17 17.5C16.7348 17.5 16.4804 17.3946 16.2929 17.2071C16.1054 17.0196 16 16.7652 16 16.5ZM9 3.5C9 3.23478 9.10536 2.98043 9.29289 2.79289C9.48043 2.60536 9.73478 2.5 10 2.5H19C19.2652 2.5 19.5196 2.60536 19.7071 2.79289C19.8946 2.98043 20 3.23478 20 3.5V14.5H19.22C18.9388 14.1906 18.5961 13.9435 18.2138 13.7743C17.8315 13.6052 17.418 13.5178 17 13.5178C16.582 13.5178 16.1685 13.6052 15.7862 13.7743C15.4039 13.9435 15.0612 14.1906 14.78 14.5H9V3.5ZM7 9.5H3L4.2 7.9C4.29315 7.7758 4.41393 7.675 4.55279 7.60557C4.69164 7.53615 4.84475 7.5 5 7.5H7V9.5ZM4 16.5C4 16.3022 4.05865 16.1089 4.16853 15.9444C4.27841 15.78 4.43459 15.6518 4.61732 15.5761C4.80004 15.5004 5.00111 15.4806 5.19509 15.5192C5.38907 15.5578 5.56725 15.653 5.70711 15.7929C5.84696 15.9327 5.9422 16.1109 5.98079 16.3049C6.01937 16.4989 5.99957 16.7 5.92388 16.8827C5.84819 17.0654 5.72002 17.2216 5.55557 17.3315C5.39112 17.4414 5.19778 17.5 5 17.5C4.73478 17.5 4.48043 17.3946 4.29289 17.2071C4.10536 17.0196 4 16.7652 4 16.5ZM2 11.5H7V14.28C6.40983 13.7526 5.63513 13.4797 4.84469 13.5209C4.05425 13.5621 3.31212 13.914 2.78 14.5H2V11.5Z"/>
</svg>
